<svg width="64" height="46" viewBox="0 0 64 46" fill="none" xmlns="http://www.w3.org/2000/svg">
<g filter="url(#filter0_d_54_1021)">
<path d="M54.0803 11.1559C52.6173 11.1559 51.257 12.3534 51.054 13.8157L49.5676 24.7056C49.4043 25.8938 48.8373 26.9202 47.8713 27.7943C46.903 28.6661 45.8133 29.1019 44.6047 29.1019C43.4287 29.1019 42.4767 28.6754 41.7487 27.8201C41.0184 26.9647 40.7384 25.9266 40.9064 24.7056L41.8047 18.0971C41.817 17.7871 41.7657 17.4779 41.6539 17.1887C41.5421 16.8995 41.3723 16.6365 41.155 16.416C40.9376 16.1956 40.6775 16.0224 40.3907 15.9072C40.1038 15.7921 39.7965 15.7374 39.4877 15.7467H35.9294C34.5714 15.7467 33.2998 16.7778 32.9661 18.0971L32.0398 24.7056C31.8759 25.9199 31.2689 27.0298 30.3365 27.8201C29.3728 28.6754 28.3042 29.1019 27.1282 29.1019C26.581 29.117 26.0375 29.0072 25.5388 28.7807C25.04 28.5542 24.599 28.2169 24.2489 27.7943C23.5045 26.9225 23.2152 25.8938 23.3785 24.7056L25.3712 10.256C25.5812 8.8499 24.7529 7.38056 23.4859 6.78299C23.4859 6.78299 8.48266 0.502557 7.50267 0.0971415C6.51567 -0.310618 5.39335 0.603326 5.01069 2.12656L4.09136 5.7589C3.70636 7.28214 4.57436 9.01629 6.01401 9.60918L16.0706 13.7899L14.5633 24.7103C14.0569 28.3708 14.9133 31.504 17.1299 34.1029C19.3466 36.7041 22.2702 38 25.9032 38C29.2538 38 32.3151 36.8681 35.0824 34.5997C37.2921 36.8681 40.0594 38 43.3774 38C47.008 38 50.291 36.7017 53.2239 34.1029C56.1593 31.5016 57.8789 28.3708 58.3829 24.708L59.9882 12.9837C60.1259 11.9807 59.0409 11.1605 57.5802 11.1605H54.0803V11.1559Z" fill="url(#paint0_linear_54_1021)" shape-rendering="crispEdges"/>
<path d="M50.063 24.7733L50.063 24.7737C49.882 26.09 49.2509 27.2202 48.2068 28.165L48.2059 28.1659C47.1534 29.1134 45.9469 29.6019 44.6047 29.6019C43.2904 29.6019 42.1962 29.1173 41.368 28.1442L50.063 24.7733ZM50.063 24.7733L51.5492 13.8844C51.5492 13.8842 51.5493 13.884 51.5493 13.8839C51.7121 12.713 52.7817 11.736 53.9371 11.6605H54.0803H57.5802C58.2231 11.6605 58.7478 11.8419 59.0819 12.0947C59.4107 12.3436 59.5315 12.6344 59.4929 12.9157L59.4928 12.9159L57.8876 24.6398C57.4009 28.1767 55.7442 31.2014 52.8923 33.7286C50.0431 36.2533 46.8758 37.5 43.3774 37.5C40.1866 37.5 37.5509 36.4173 35.4406 34.2508L35.1204 33.922L34.7655 34.213C32.0813 36.4133 29.1304 37.5 25.9032 37.5C22.4057 37.5 19.6252 36.2602 17.5105 33.7786L17.5103 33.7784C15.3945 31.2977 14.57 28.3109 15.0586 24.7788L15.0586 24.7787L16.5659 13.8582L16.6186 13.4762L16.2625 13.3282L6.20595 9.14748L6.20441 9.14685C4.997 8.6496 4.25148 7.16622 4.57608 5.88158C4.57609 5.88153 4.5761 5.88147 4.57612 5.88142L5.4954 2.24924L5.49562 2.24839C5.66614 1.5696 5.99342 1.06238 6.34578 0.775431C6.69294 0.49272 7.0287 0.442322 7.31175 0.559258C7.80149 0.761864 11.7951 2.4324 15.6688 4.05334L20.9333 6.25656L22.6462 6.97356L23.1241 7.17358L23.2497 7.22618L23.2819 7.23965L23.2821 7.23974C24.3527 7.75014 25.0522 9.00688 24.8767 10.1821L24.8766 10.1821L24.8759 10.1877L22.8832 24.6373L22.8832 24.6376C22.7017 25.9581 23.0261 27.1307 23.8662 28.1162C24.2642 28.5957 24.7653 28.9785 25.332 29.2359C25.8978 29.4928 26.5142 29.618 27.135 29.6019C28.4407 29.6003 29.6211 29.122 30.6641 28.1978C31.6883 27.3279 32.3547 26.1079 32.5351 24.7739C32.5352 24.7734 32.5352 24.773 32.5353 24.7725L33.4573 18.1947C33.7472 17.0992 34.8191 16.2467 35.9294 16.2467H39.4877H39.4952M50.063 24.7733L39.4952 16.2467M39.4952 16.2467L39.5027 16.2464M39.4952 16.2467L39.5027 16.2464M39.5027 16.2464C39.7426 16.2393 39.9814 16.2817 40.2044 16.3712C40.4273 16.4607 40.6297 16.5954 40.7989 16.767C40.9681 16.9387 41.1004 17.1435 41.1875 17.369C41.272 17.5875 41.3122 17.8207 41.3058 18.0549L40.411 24.6375C40.411 24.6376 40.411 24.6377 40.411 24.6378M39.5027 16.2464L40.411 24.6378M40.411 24.6378C40.2258 25.9841 40.5357 27.169 41.3679 28.1441L40.411 24.6378Z" stroke="black" stroke-opacity="0.15" shape-rendering="crispEdges"/>
</g>
<defs>
<filter id="filter0_d_54_1021" x="0" y="0" width="64" height="46" filterUnits="userSpaceOnUse" color-interpolation-filters="sRGB">
<feFlood flood-opacity="0" result="BackgroundImageFix"/>
<feColorMatrix in="SourceAlpha" type="matrix" values="0 0 0 0 0 0 0 0 0 0 0 0 0 0 0 0 0 0 127 0" result="hardAlpha"/>
<feOffset dy="4"/>
<feGaussianBlur stdDeviation="2"/>
<feComposite in2="hardAlpha" operator="out"/>
<feColorMatrix type="matrix" values="0 0 0 0 0 0 0 0 0 0 0 0 0 0 0 0 0 0 0.15 0"/>
<feBlend mode="normal" in2="BackgroundImageFix" result="effect1_dropShadow_54_1021"/>
<feBlend mode="normal" in="SourceGraphic" in2="effect1_dropShadow_54_1021" result="shape"/>
</filter>
<linearGradient id="paint0_linear_54_1021" x1="60" y1="22.5349" x2="1.75617" y2="5.15818" gradientUnits="userSpaceOnUse">
<stop stop-color="#AB86DF"/>
<stop offset="0.502453" stop-color="#B593E4"/>
<stop offset="0.680544" stop-color="#B899E5" stop-opacity="0.966406"/>
<stop offset="0.919323" stop-color="#BDA0E6" stop-opacity="0.91"/>
<stop offset="1" stop-color="#CEB9ED" stop-opacity="0.8"/>
</linearGradient>
</defs>
</svg>
